<svg width="127" height="127" viewBox="0 0 127 127" fill="none" xmlns="http://www.w3.org/2000/svg">
<path d="M63.4991 0.787109C28.8349 0.787109 0.786255 28.8358 0.786255 63.5C0.786255 98.1642 28.8349 126.213 63.4991 126.213C98.1634 126.213 126.212 98.1642 126.212 63.5C126.212 28.8358 98.1634 0.787109 63.4991 0.787109ZM63.4991 4.58789C96.0067 4.58789 122.411 30.9925 122.411 63.5C122.411 96.0075 96.0067 122.412 63.4991 122.412C30.9916 122.412 4.58704 96.0075 4.58704 63.5C4.58704 30.9925 30.9916 4.58789 63.4991 4.58789ZM63.4991 9.47461C61.387 9.47461 59.3039 9.59949 57.255 9.8346V40.1586C59.2477 39.6243 61.3408 39.3379 63.4991 39.3379C65.6574 39.3379 67.7506 39.6243 69.7433 40.1586V9.8346C67.6944 9.59949 65.6113 9.47461 63.4991 9.47461ZM52.3683 10.6222C47.986 11.5379 43.8002 12.983 39.88 14.8888V52.3691H42.0614C44.3571 47.9689 47.9681 44.3576 52.3683 42.0622V10.6222ZM74.63 10.6222V42.0622C79.0302 44.3579 82.6415 47.9689 84.9369 52.3691H87.1183V14.8888C83.1981 12.983 79.0123 11.5379 74.63 10.6222ZM34.9933 17.5879C30.301 20.5047 26.0894 24.1198 22.505 28.2904V58.1925C23.3249 57.757 24.0362 57.3894 24.5916 57.0577C25.377 56.5891 25.8133 56.2125 26.0099 55.9446C26.207 55.6766 26.3058 55.4912 26.3058 54.8125V52.3691H34.9933V17.5879ZM92.005 17.5879V52.3691H100.693V54.8125C100.693 55.4912 100.798 55.7057 100.997 55.9902C101.197 56.2747 101.609 56.6499 102.32 57.1234C102.894 57.5067 103.646 57.9441 104.493 58.4854V28.2901C100.909 24.1193 96.6973 20.5047 92.005 17.5879ZM17.6183 34.9439C12.4574 43.2272 9.47375 53.0104 9.47375 63.5C9.47375 73.9902 12.4574 83.7734 17.6183 92.0558V65.8511C17.4413 65.7254 17.2635 65.5969 17.0835 65.4639L14.4311 63.5L17.0843 61.5361C17.2643 61.4031 17.4421 61.2746 17.6191 61.1489V34.9442L17.6183 34.9439ZM109.38 34.9439V62.4882L110.393 63.5L109.38 64.5118V92.0558C114.541 83.7734 117.525 73.9899 117.525 63.5C117.525 53.0098 114.541 43.2264 109.38 34.9439ZM63.4991 44.2246C52.8244 44.2246 44.2238 52.8252 44.2238 63.5C44.2238 74.1748 52.8244 82.7754 63.4991 82.7754C74.1739 82.7754 82.7745 74.1748 82.7745 63.5C82.7745 52.8252 74.1739 44.2246 63.4991 44.2246ZM63.4991 52.3691C69.6176 52.3691 74.63 57.3816 74.63 63.5C74.63 69.6184 69.6176 74.6309 63.4991 74.6309C57.3807 74.6309 52.3683 69.6184 52.3683 63.5C52.3683 57.3816 57.3807 52.3691 63.4991 52.3691ZM30.7592 57.2559C30.554 57.8298 30.2912 58.3711 29.9475 58.8386C29.1466 59.9281 28.1296 60.6375 27.0958 61.2548C25.854 61.996 24.501 62.6674 23.0442 63.5C24.5007 64.3326 25.854 65.004 27.0958 65.7452C28.1296 66.3625 29.1466 67.0719 29.9475 68.1614C30.2912 68.6289 30.554 69.1702 30.7592 69.7441H40.158C39.6232 67.7514 39.337 65.6583 39.337 63.5C39.337 61.3417 39.6235 59.2486 40.1577 57.2559H30.7589H30.7592ZM63.4991 57.2559C60.0214 57.2559 57.255 60.0223 57.255 63.5C57.255 66.9777 60.0214 69.7441 63.4991 69.7441C66.9769 69.7441 69.7433 66.9777 69.7433 63.5C69.7433 60.0223 66.9769 57.2559 63.4991 57.2559ZM86.8406 57.2559C87.3748 59.2486 87.6613 61.3417 87.6613 63.5C87.6613 65.6583 87.3748 67.7514 86.8406 69.7441H96.232C96.4283 69.1871 96.6759 68.6615 96.9941 68.207C97.745 67.1341 98.69 66.4233 99.6085 65.8109C100.772 65.0355 101.952 64.3557 103.14 63.5C101.952 62.6443 100.772 61.9645 99.6087 61.1891C98.69 60.5767 97.745 59.8659 96.9943 58.793C96.6759 58.3385 96.4283 57.8129 96.232 57.2559H86.8406ZM104.493 68.5143C103.646 69.0559 102.894 69.4933 102.319 69.8766C101.609 70.3501 101.197 70.7253 100.997 71.0098C100.798 71.2949 100.693 71.5088 100.693 72.1875V74.6309H92.005V109.412C96.6973 106.495 100.909 102.88 104.493 98.7096V68.5143ZM22.505 68.8075V98.7096C26.0894 102.88 30.301 106.495 34.9933 109.412V74.6309H26.3058V72.1875C26.3058 71.5088 26.207 71.3234 26.0099 71.0554C25.813 70.7875 25.3773 70.4109 24.5916 69.9423C24.0362 69.6106 23.3246 69.243 22.505 68.8075ZM39.88 74.6309V112.111C43.8002 114.017 47.986 115.462 52.3683 116.378V84.9378C47.9681 82.6421 44.3568 79.0311 42.0614 74.6309H39.88ZM84.9369 74.6309C82.6412 79.0311 79.0302 82.6424 74.63 84.9378V116.378C79.0123 115.462 83.1981 114.017 87.1183 112.111V74.6309H84.9369ZM57.255 86.8414V117.165C59.3039 117.401 61.387 117.525 63.4991 117.525C65.6113 117.525 67.6944 117.401 69.7433 117.165V86.8414C67.7506 87.3757 65.6574 87.6621 63.4991 87.6621C61.3408 87.6621 59.2477 87.3757 57.255 86.8414Z" fill="white" fill-opacity="0.12"/>
</svg>
