<svg width="48" height="36" viewBox="0 0 48 36" fill="none" xmlns="http://www.w3.org/2000/svg">
<path d="M40.6332 2.9842C37.5738 1.60295 34.2931 0.585295 30.8629 0.00244498C30.8005 -0.00880385 30.7381 0.0193076 30.7059 0.0755318C30.284 0.813931 29.8166 1.77723 29.4893 2.53438C25.8 1.9909 22.1295 1.9909 18.5158 2.53438C18.1884 1.7604 17.7041 0.813931 17.2803 0.0755318C17.2481 0.0211835 17.1857 -0.00692794 17.1232 0.00244498C13.695 0.583433 10.4143 1.60108 7.35302 2.9842C7.32651 2.99545 7.3038 3.0142 7.28872 3.03855C1.06593 12.1862 -0.638755 21.1091 0.197506 29.9213C0.20129 29.9644 0.225885 30.0056 0.259942 30.0318C4.36556 32.9986 8.34256 34.7996 12.2457 35.9934C12.3082 36.0122 12.3744 35.9897 12.4141 35.9391C13.3374 34.6985 14.1604 33.3903 14.8661 32.0146C14.9077 31.9341 14.868 31.8385 14.7829 31.8066C13.4774 31.3194 12.2343 30.7252 11.0386 30.0506C10.944 29.9962 10.9365 29.8631 11.0235 29.7994C11.2751 29.6139 11.5268 29.4208 11.7671 29.2259C11.8105 29.1903 11.8711 29.1828 11.9222 29.2053C19.7777 32.7343 28.2822 32.7343 36.0451 29.2053C36.0962 29.1809 36.1567 29.1885 36.2021 29.224C36.4424 29.419 36.6941 29.6139 36.9476 29.7994C37.0346 29.8631 37.0289 29.9962 36.9343 30.0506C35.7386 30.7383 34.4955 31.3194 33.1882 31.8048C33.1031 31.8366 33.0652 31.9341 33.1068 32.0146C33.8277 33.3884 34.6507 34.6965 35.5569 35.9372C35.5948 35.9897 35.6629 36.0122 35.7253 35.9934C39.6474 34.7996 43.6244 32.9986 47.73 30.0318C47.766 30.0056 47.7887 29.9662 47.7925 29.9231C48.7933 19.7353 46.1161 10.8856 40.6956 3.04041C40.6823 3.0142 40.6597 2.99545 40.6332 2.9842ZM16.0392 24.5555C13.6741 24.5555 11.7254 22.4191 11.7254 19.7953C11.7254 17.1714 13.6364 15.035 16.0392 15.035C18.4609 15.035 20.3908 17.1902 20.3529 19.7953C20.3529 22.4191 18.442 24.5555 16.0392 24.5555ZM31.9886 24.5555C29.6237 24.5555 27.6749 22.4191 27.6749 19.7953C27.6749 17.1714 29.5858 15.035 31.9886 15.035C34.4104 15.035 36.3402 17.1902 36.3024 19.7953C36.3024 22.4191 34.4104 24.5555 31.9886 24.5555Z" fill="#3A3A3A"/>
</svg>
