<svg width="54" height="51" viewBox="0 0 54 51" fill="none" xmlns="http://www.w3.org/2000/svg">
<path d="M50.7811 1.35449L30.1691 16.6633L33.9807 7.63133L50.7811 1.35449Z" fill="#E2761B" stroke="#E2761B" stroke-linecap="round" stroke-linejoin="round"/>
<path d="M3.19675 1.35449L23.6431 16.8084L20.0178 7.63133L3.19675 1.35449ZM43.3644 36.8404L37.8747 45.2509L49.6205 48.4826L52.9971 37.0268L43.3644 36.8404ZM1.02161 37.0268L4.37754 48.4826L16.1233 45.2509L10.6337 36.8404L1.02161 37.0268Z" fill="#E4761B" stroke="#E4761B" stroke-linecap="round" stroke-linejoin="round"/>
<path d="M15.4605 22.629L12.1875 27.58L23.8504 28.0979L23.4361 15.565L15.4605 22.629ZM38.517 22.629L30.4379 15.42L30.1686 28.0979L41.8108 27.58L38.517 22.629ZM16.1234 45.2505L23.1253 41.8324L17.0764 37.1092L16.1234 45.2505ZM30.8523 41.8324L37.8749 45.2505L36.9012 37.1092L30.8523 41.8324Z" fill="#E4761B" stroke="#E4761B" stroke-linecap="round" stroke-linejoin="round"/>
<path d="M37.8746 45.2501L30.852 41.832L31.4113 46.4102L31.3492 48.3367L37.8746 45.2501ZM16.1232 45.2501L22.6486 48.3367L22.6072 46.4102L23.1251 41.832L16.1232 45.2501Z" fill="#D7C1B3" stroke="#D7C1B3" stroke-linecap="round" stroke-linejoin="round"/>
<path d="M22.7521 34.085L16.9103 32.3656L21.0327 30.4805L22.7521 34.085ZM31.2248 34.085L32.9442 30.4805L37.0873 32.3656L31.2248 34.085Z" fill="#233447" stroke="#233447" stroke-linecap="round" stroke-linejoin="round"/>
<path d="M16.1234 45.2505L17.1178 36.8399L10.6338 37.0264L16.1234 45.2505ZM36.8805 36.8399L37.8748 45.2505L43.3645 37.0264L36.8805 36.8399ZM41.8108 27.58L30.1686 28.0979L31.2458 34.0848L32.9652 30.4802L37.1084 32.3654L41.8108 27.58ZM16.9106 32.3654L21.0538 30.4802L22.7524 34.0848L23.8504 28.0979L12.1875 27.58L16.9106 32.3654Z" fill="#CD6116" stroke="#CD6116" stroke-linecap="round" stroke-linejoin="round"/>
<path d="M12.1875 27.58L17.0764 37.1092L16.9106 32.3654L12.1875 27.58ZM37.1084 32.3654L36.9012 37.1092L41.8108 27.58L37.1084 32.3654ZM23.8504 28.0979L22.7524 34.0848L24.1197 41.1488L24.4304 31.8475L23.8504 28.0979ZM30.1686 28.0979L29.6093 31.8268L29.8579 41.1488L31.2458 34.0848L30.1686 28.0979Z" fill="#E4751F" stroke="#E4751F" stroke-linecap="round" stroke-linejoin="round"/>
<path d="M31.2455 34.0846L29.8575 41.1487L30.8519 41.8323L36.9009 37.1091L37.108 32.3652L31.2455 34.0846ZM16.9103 32.3652L17.076 37.1091L23.125 41.8323L24.1193 41.1487L22.7521 34.0846L16.9103 32.3652Z" fill="#F6851B" stroke="#F6851B" stroke-linecap="round" stroke-linejoin="round"/>
<path d="M31.3492 48.3366L31.4113 46.4101L30.8934 45.9543H23.0836L22.6072 46.4101L22.6486 48.3366L16.1232 45.25L18.4019 47.1144L23.0215 50.3253H30.9556L35.5959 47.1144L37.8746 45.25L31.3492 48.3366Z" fill="#C0AD9E" stroke="#C0AD9E" stroke-linecap="round" stroke-linejoin="round"/>
<path d="M30.8524 41.8321L29.858 41.1484H24.1198L23.1254 41.8321L22.6075 46.4102L23.084 45.9545H30.8938L31.4117 46.4102L30.8524 41.8321Z" fill="#161616" stroke="#161616" stroke-linecap="round" stroke-linejoin="round"/>
<path d="M51.6511 17.6577L53.4119 9.20572L50.781 1.35449L30.8526 16.1455L38.5174 22.6294L49.3516 25.7989L51.7546 23.0023L50.7189 22.2566L52.3761 20.7443L51.0917 19.75L52.749 18.4863L51.6511 17.6577ZM0.587036 9.20572L2.34786 17.6577L1.22922 18.4863L2.88647 19.75L1.62282 20.7443L3.28007 22.2566L2.24429 23.0023L4.62658 25.7989L15.4609 22.6294L23.1256 16.1455L3.19721 1.35449L0.587036 9.20572Z" fill="#763D16" stroke="#763D16" stroke-linecap="round" stroke-linejoin="round"/>
<path d="M49.3513 25.7985L38.5171 22.629L41.8108 27.58L36.9012 37.1092L43.3645 37.0264H52.9973L49.3513 25.7985ZM15.4606 22.629L4.62628 25.7985L1.02176 37.0264H10.6338L17.0764 37.1092L12.1875 27.58L15.4606 22.629ZM30.1687 28.0979L30.8523 16.145L34.001 7.63089H20.018L23.1253 16.145L23.8504 28.0979L24.099 31.8682L24.1197 41.1488H29.8579L29.8993 31.8682L30.1687 28.0979Z" fill="#F6851B" stroke="#F6851B" stroke-linecap="round" stroke-linejoin="round"/>
</svg>
