<svg width="52" height="43" viewBox="0 0 52 43" fill="none" xmlns="http://www.w3.org/2000/svg">
<path d="M16.3578 43C35.9756 43 46.7088 26.4549 46.7088 12.1114C46.7088 11.6463 46.6986 11.1708 46.6783 10.7057C48.7662 9.16901 50.5681 7.2656 51.9991 5.08491C50.0546 5.96538 47.99 6.54042 45.8759 6.79037C48.1019 5.43244 49.7686 3.2992 50.5671 0.786098C48.473 2.04913 46.1829 2.94009 43.7949 3.42078C42.186 1.68089 40.0586 0.528878 37.7418 0.14285C35.425 -0.243177 33.0477 0.158285 30.9776 1.28516C28.9074 2.41205 27.2597 4.20158 26.2891 6.37709C25.3186 8.55261 25.0792 10.9929 25.6081 13.3208C21.3679 13.1042 17.2197 11.9832 13.4324 10.0304C9.6452 8.07758 6.30348 5.33659 3.62391 1.98509C2.26201 4.37476 1.84527 7.20252 2.45838 9.89366C3.07149 12.5848 4.66845 14.9374 6.92469 16.4733C5.23084 16.4186 3.57409 15.9544 2.09133 15.1192V15.2536C2.08982 17.7614 2.94169 20.1923 4.50215 22.1332C6.06261 24.074 8.23535 25.405 10.651 25.8999C9.08193 26.3368 7.43511 26.4004 5.83797 26.0859C6.51963 28.2426 7.84589 30.1289 9.63165 31.4816C11.4174 32.8343 13.5736 33.5858 15.7992 33.6313C12.0207 36.6519 7.35319 38.2903 2.54836 38.2826C1.69627 38.2813 0.84501 38.2281 -0.000854492 38.1234C4.88033 41.3104 10.5585 43.0031 16.3578 43Z" fill="#1D9BF0"/>
</svg>
