<svg width="95" height="95" viewBox="0 0 95 95" fill="none" xmlns="http://www.w3.org/2000/svg">
<mask id="path-1-outside-1_2_47" maskUnits="userSpaceOnUse" x="-0.5" y="-0.175537" width="95" height="95" fill="black">
<rect fill="white" x="-0.5" y="-0.175537" width="95" height="95"/>
<path d="M53.9118 7.47271C57.5063 11.1879 60.2751 14.3654 60.0808 14.5609C59.8865 14.7076 59.2065 15.0009 58.5264 15.1964C57.4578 15.4408 56.6806 14.8053 52.4546 10.4058L47.6457 5.3218L42.4968 10.6991C37.4937 15.9297 37.3479 16.0274 36.085 15.3919C35.3078 15.0498 34.7249 14.4631 34.7249 14.0232C34.7249 13.3388 46.1885 0.971115 47.0143 0.824463C47.2086 0.824463 50.3173 3.8064 53.9118 7.47271ZM51.2402 14.2187C54.9805 17.9828 55.4176 19.0583 52.6489 17.5917C51.2888 16.9074 50.1716 16.8096 45.7999 17.054C39.8252 17.3473 39.9224 17.6406 44.1969 13.0944C45.5085 11.7256 46.8685 10.5524 47.1114 10.5524C47.4029 10.5524 49.2487 12.2145 51.2402 14.2187ZM21.0755 12.0189C29.9161 14.2676 36.425 18.5694 41.5253 25.4621C43.5655 28.1507 46.1399 32.9414 45.7999 33.2835C45.6542 33.4302 44.877 33.2835 44.0512 32.9902C42.9826 32.648 42.3511 31.9148 41.8168 30.546C40.7967 28.0041 40.5539 27.6619 36.085 23.2134C31.7619 18.8627 26.8559 16.0763 20.9298 14.512C15.9266 13.1922 14.3237 13.1922 14.3237 14.4143C14.3237 15.9786 15.7323 22.3824 16.6067 24.5822C17.2381 26.2931 17.2381 26.8308 16.7524 27.4174C15.7809 28.5907 15.4894 28.3462 14.4208 25.5598C13.255 22.5779 12.915 21.0625 12.4293 16.2719C12.1864 14.3654 11.8949 12.3611 11.6521 11.8723C11.3606 11.139 11.6521 11.0413 14.3237 11.0413C15.9752 11.0413 18.9868 11.4812 21.0755 12.0189ZM82.7165 15.783C82.4736 20.4759 80.5306 28.1996 79.4134 28.884C79.1705 29.0306 78.6362 28.6396 78.1991 27.9552C77.4704 26.8308 77.4704 26.5375 78.6848 23.1645C79.3648 21.2092 80.0935 18.2272 80.2392 16.5652L80.5306 13.4855H79.122C78.2962 13.4855 76.4018 13.8277 74.7988 14.2187C68.047 16.0274 62.8495 18.9605 58.4778 23.5556C56.0005 26.0976 52.7461 30.8882 52.6975 31.9148C52.6975 32.3059 52.0174 32.5503 50.9974 32.5503H49.3458L49.9773 30.6927C51.8231 25.4132 58.6721 18.1783 64.5982 15.1964C69.6985 12.6055 74.9446 11.1879 79.3648 11.0901L82.9108 11.0413L82.7165 15.783ZM21.9013 18.4228C26.4187 19.7915 29.9161 21.8935 33.2677 25.1688C35.8421 27.7108 38.1251 30.7905 38.1251 31.6704C38.1251 32.6481 36.9108 31.7681 33.1705 28.0041C29.3332 24.1911 25.6901 21.7958 22.4842 21.0625C21.2698 20.7692 21.1727 20.8181 21.2698 22.138C21.367 23.2134 21.1727 23.5067 20.3955 23.5067C19.7154 23.5067 19.3268 22.969 18.9382 21.4536C18.6954 20.3292 18.3068 19.2538 18.1125 19.0583C17.5781 18.5694 17.6267 17.3962 18.161 17.3962C18.4039 17.3962 20.104 17.8362 21.9013 18.4228ZM76.499 19.1071C76.499 20.9159 75.1874 24.7288 74.556 24.7288C73.8274 24.7288 73.0502 23.3112 73.1959 22.1868C73.293 21.258 73.1473 21.0625 72.2244 21.1603C69.2128 21.5025 64.8897 24.3866 61.7323 28.2485C60.0322 30.2527 57.5063 31.6704 56.7777 30.986C56.4377 30.6438 59.595 26.5864 61.878 24.3866C64.5496 21.7958 67.367 20.0848 71.5443 18.6183C76.0618 16.9562 76.499 17.0051 76.499 19.1071ZM50.7059 21.1114L52.2603 21.4536L50.9488 22.8223C49.8316 23.9956 49.2001 24.24 47.2571 24.24C45.3142 24.24 44.6341 23.9956 43.5655 22.9201C42.3511 21.698 42.3511 21.6002 43.2254 21.258C44.4398 20.7692 48.6658 20.7203 50.7059 21.1114ZM25.1558 25.7554C25.7386 26.0976 26.3215 26.3909 26.4187 26.5375C26.5644 26.6353 22.0956 31.2304 16.5095 36.7054C10.972 42.2294 6.55174 46.8733 6.74604 47.0689C6.89176 47.3133 11.4578 51.9084 16.8981 57.3834C24.7186 65.3027 26.5644 67.3558 25.9815 67.7469C25.5929 67.9913 24.9129 68.2357 24.4757 68.2357C24.0871 68.2357 20.4926 65.0094 16.4609 61.0986C12.4778 57.1879 7.47466 52.2995 5.38596 50.2464L1.5 46.5312L12.3321 35.8744C18.3068 30.0083 23.4071 25.2177 23.65 25.2177C23.8928 25.2177 24.5729 25.4621 25.1558 25.7554ZM82.5222 36.2166C88.5454 42.0827 93.5 47.1178 93.5 47.3133C93.5 47.5088 93.2571 47.7044 92.9657 47.7044C92.5285 47.7044 74.9931 64.7161 72.1758 67.8447C71.2529 68.9201 70.4757 68.969 68.9699 67.9424L67.7555 67.1603L73.5359 61.4408C76.6932 58.3122 81.4536 53.7171 84.028 51.1752L88.7397 46.58L78.5391 36.4121C69.7471 27.7107 68.387 26.1465 69.1156 25.7065C69.5528 25.4621 70.2814 25.2665 70.7186 25.3643C71.1558 25.4132 76.4504 30.3016 82.5222 36.2166ZM30.6447 30.7904C30.7904 31.1326 30.0132 32.7458 28.9446 34.359C26.5644 37.9275 25.4958 41.7894 25.4958 46.9711C25.4958 53.3749 26.5644 56.5524 30.3532 61.4897L31.3733 62.7607L30.2561 63.5428C29.2846 64.2272 29.0903 64.2272 28.1674 63.3473C26.2244 61.5386 23.8928 56.8946 23.0185 53.1794C21.0269 44.918 22.5327 37.2432 27.3416 30.7416C28.3131 29.4217 28.6531 29.2262 29.4789 29.6661C29.9646 29.9594 30.4989 30.4483 30.6447 30.7904ZM66.444 29.9594C68.387 32.0126 69.7957 34.1146 71.0586 36.8032C72.3216 39.4918 72.3701 39.9807 72.3701 46.9711C72.3701 53.9127 72.3216 54.4504 71.0586 57.139C69.7471 59.9743 66.3955 64.765 65.7154 64.8138C65.2783 64.8138 63.3838 63.0051 63.3838 62.5652C63.3838 62.4185 64.2582 61.2942 65.2783 60.0232C68.7756 55.7703 69.4557 53.6682 69.4557 46.7267C69.4557 41.3983 69.3099 40.274 68.2899 37.9275C67.6584 36.461 66.3955 34.3101 65.4725 33.1858C64.1125 31.4259 63.9182 30.9371 64.3553 30.1061C64.9868 28.884 65.424 28.884 66.444 29.9594ZM37.6394 34.7501C44.1484 36.6566 50.3659 36.5588 57.2635 34.4568C60.3722 33.528 60.6151 33.528 61.4895 34.3101C61.9752 34.7501 62.4124 35.2878 62.4124 35.4833C62.4124 35.6789 60.2751 36.461 57.7006 37.2432C53.6204 38.4653 52.1146 38.6608 47.3543 38.6608C42.594 38.6608 41.1368 38.4653 37.5422 37.292C35.2107 36.5588 33.1705 35.7278 33.0248 35.4344C32.4905 34.6034 33.2191 33.3813 34.142 33.6746C34.5792 33.8213 36.1822 34.3101 37.6394 34.7501ZM19.6668 38.7586C19.6668 39.003 19.3268 40.2251 18.9382 41.545C18.0153 44.5269 18.0153 48.5354 18.8897 52.3484C19.6668 55.6236 19.4725 56.4058 18.3068 54.5482C17.8696 53.8638 16.0723 51.8106 14.2751 50.0019L11.0206 46.6778L15.0037 42.5715C18.7439 38.7097 19.6668 37.9275 19.6668 38.7586ZM79.2191 42.4249C81.4535 44.6247 83.2994 46.6289 83.2994 46.9711C83.2994 47.6066 76.1589 54.8415 75.8189 54.4993C75.6732 54.4015 75.7703 53.4238 76.0132 52.3484C76.2561 51.2729 76.499 48.5354 76.499 46.2379C76.499 42.9137 76.3047 41.7894 75.5275 40.6162C74.556 39.1008 74.3131 38.4164 74.8474 38.4164C75.0417 38.4164 76.9847 40.2251 79.2191 42.4249ZM32.7819 39.6385C33.5591 40.0296 36.1822 40.8606 38.6109 41.3983C45.4599 43.0115 56.4863 42.1316 61.198 39.6874C63.1895 38.6608 64.2096 38.7097 64.8411 39.9318C65.5211 41.1539 65.6668 41.0072 62.4124 42.1805C54.3976 45.1624 46.0428 45.7001 38.1251 43.7936C31.6162 42.2293 29.3817 41.2028 29.7218 39.9318C30.0132 38.7097 30.8875 38.6608 32.7819 39.6385ZM55.1748 49.122C60.5665 50.2464 65.3268 52.0062 65.3268 52.8372C65.3268 54.4015 64.0153 54.5482 60.858 53.3749C57.4092 52.0551 50.2202 50.6374 47.0628 50.6374C44.1969 50.6374 37.9794 51.9573 33.802 53.4238C30.3532 54.6948 30.2075 54.6948 29.576 53.8149C29.1874 53.3261 28.896 52.7394 28.896 52.5439C28.896 52.0062 34.7735 50.0019 39.0966 49.122C44.6341 47.9977 49.6859 47.9977 55.1748 49.122ZM54.6404 55.3792C58.1378 56.2102 62.4124 57.8723 62.4124 58.4589C62.4124 58.6544 62.1209 59.0944 61.7323 59.3877C61.198 59.8277 60.1779 59.6321 57.2635 58.6544C54.009 57.579 52.5518 57.3834 47.84 57.3346C42.4483 57.3346 39.7281 57.7745 34.9678 59.4855C33.6563 59.9743 33.1705 59.9743 32.5876 59.4855C31.4219 58.5078 31.6162 58.1656 34.142 57.0901C41.0396 54.1082 47.2571 53.6194 54.6404 55.3792ZM45.557 61.7341C45.3627 62.223 44.4398 63.9339 43.5169 65.5471C38.2709 74.6396 27.6331 80.9945 15.6837 82.2166L12.3807 82.5099V79.3813C12.3807 77.6215 12.575 74.9817 12.8664 73.5641C13.4493 70.2889 14.9551 65.3027 15.3437 65.3027C15.4894 65.3027 16.0238 65.7426 16.5095 66.2804C17.3838 67.258 17.3838 67.3558 16.3638 70.3377C15.1008 74.0041 14.3237 78.6969 14.858 79.5769C15.3923 80.4079 22.4356 78.6481 26.8073 76.5949C33.2191 73.5641 39.7767 67.4536 41.7682 62.6629C42.3997 61.1475 42.7397 60.9031 44.1969 60.9031C45.6056 60.9031 45.7999 61.0498 45.557 61.7341ZM53.6204 64.0806C56.3406 68.7735 61.538 73.613 66.6383 76.2038C69.65 77.7681 76.9847 79.9679 79.0734 79.9679H80.5306L80.2392 76.8882C80.0935 75.2262 79.4134 72.2442 78.7334 70.3377C77.5676 66.867 77.5676 66.7692 78.4419 65.6938L79.3163 64.5694L80.0935 66.5248C81.6964 70.3377 82.8136 75.7639 82.8136 79.6257C82.8136 82.6566 82.6679 83.3898 82.2307 82.9987C81.8907 82.7543 80.2878 82.3633 78.6848 82.1677C69.99 81.19 62.2181 77.4748 56.5834 71.7065C54.009 69.1156 50.2687 63.9828 50.2687 63.1029C50.2687 62.8585 49.8802 62.2719 49.443 61.7341C48.6172 60.8542 48.6658 60.8542 50.2687 61.0009C51.726 61.1475 52.1146 61.4897 53.6204 64.0806ZM38.1251 62.7607C38.1251 63.885 33.0734 69.2134 30.1104 71.1688C26.8559 73.3686 21.5127 75.5684 19.5211 75.5684C18.6468 75.5684 18.5982 75.3239 18.8897 72.5375C19.084 70.8266 19.3268 69.3601 19.4725 69.2623C19.9097 68.8223 21.9984 71.3154 21.7555 71.9509C21.4155 72.8308 21.5612 72.8308 24.33 71.6576C27.5359 70.24 32.5876 66.5248 33.6077 64.8138C34.5792 63.1029 38.1251 61.5386 38.1251 62.7607ZM62.4609 66.2804C66.8326 70.7288 74.216 74.3951 73.3902 71.7554C73.0502 70.7288 74.216 68.9201 74.896 69.3601C75.4789 69.7511 76.499 73.4663 76.499 75.275C76.499 76.4971 76.4504 76.4972 74.9446 75.8617C74.0702 75.4706 72.0301 74.6884 70.4271 74.1018C66.3469 72.6842 62.801 70.0933 59.0607 65.8404L55.8548 62.223L57.5063 62.614C58.6236 62.8585 60.2265 64.0317 62.4609 66.2804ZM50.7059 70.9732L51.7746 72.782L47.84 72.5375C45.7028 72.3909 43.8569 72.1953 43.7112 72.0487C43.5655 71.902 43.7112 71.2177 44.0026 70.4844C44.537 69.3601 44.877 69.2134 47.16 69.2134C49.5401 69.2134 49.7344 69.3112 50.7059 70.9732ZM45.1684 76.3505C47.0628 76.4971 49.8802 76.3994 51.4831 76.155C53.0861 75.8617 54.4947 75.7639 54.5919 75.8617C54.7376 75.9594 53.1346 77.7193 51.1431 79.7724L47.5 83.4876L45.4599 81.2878C44.3427 80.1146 42.594 78.5014 41.5253 77.7681C39.3881 76.3016 38.9509 75.275 40.6996 75.7639C41.2825 75.9594 43.3226 76.2038 45.1684 76.3505ZM42.3025 82.9499L47.2571 87.936L52.1632 82.8521L57.0206 77.7681L58.3807 78.5014C59.1093 78.9414 59.7408 79.528 59.7408 79.8213C59.7408 80.359 55.1262 85.2963 49.5887 90.6736L47.4029 92.8245L46.0913 91.2113C45.3627 90.3314 42.4968 87.3494 39.7767 84.5142C35.4535 80.0657 34.9192 79.3813 35.5507 78.7458C35.9393 78.3547 36.5222 78.0126 36.8136 78.0126C37.1051 78.0126 39.5824 80.2612 42.3025 82.9499Z"/>
</mask>
<path d="M53.9118 7.47271C57.5063 11.1879 60.2751 14.3654 60.0808 14.5609C59.8865 14.7076 59.2065 15.0009 58.5264 15.1964C57.4578 15.4408 56.6806 14.8053 52.4546 10.4058L47.6457 5.3218L42.4968 10.6991C37.4937 15.9297 37.3479 16.0274 36.085 15.3919C35.3078 15.0498 34.7249 14.4631 34.7249 14.0232C34.7249 13.3388 46.1885 0.971115 47.0143 0.824463C47.2086 0.824463 50.3173 3.8064 53.9118 7.47271ZM51.2402 14.2187C54.9805 17.9828 55.4176 19.0583 52.6489 17.5917C51.2888 16.9074 50.1716 16.8096 45.7999 17.054C39.8252 17.3473 39.9224 17.6406 44.1969 13.0944C45.5085 11.7256 46.8685 10.5524 47.1114 10.5524C47.4029 10.5524 49.2487 12.2145 51.2402 14.2187ZM21.0755 12.0189C29.9161 14.2676 36.425 18.5694 41.5253 25.4621C43.5655 28.1507 46.1399 32.9414 45.7999 33.2835C45.6542 33.4302 44.877 33.2835 44.0512 32.9902C42.9826 32.648 42.3511 31.9148 41.8168 30.546C40.7967 28.0041 40.5539 27.6619 36.085 23.2134C31.7619 18.8627 26.8559 16.0763 20.9298 14.512C15.9266 13.1922 14.3237 13.1922 14.3237 14.4143C14.3237 15.9786 15.7323 22.3824 16.6067 24.5822C17.2381 26.2931 17.2381 26.8308 16.7524 27.4174C15.7809 28.5907 15.4894 28.3462 14.4208 25.5598C13.255 22.5779 12.915 21.0625 12.4293 16.2719C12.1864 14.3654 11.8949 12.3611 11.6521 11.8723C11.3606 11.139 11.6521 11.0413 14.3237 11.0413C15.9752 11.0413 18.9868 11.4812 21.0755 12.0189ZM82.7165 15.783C82.4736 20.4759 80.5306 28.1996 79.4134 28.884C79.1705 29.0306 78.6362 28.6396 78.1991 27.9552C77.4704 26.8308 77.4704 26.5375 78.6848 23.1645C79.3648 21.2092 80.0935 18.2272 80.2392 16.5652L80.5306 13.4855H79.122C78.2962 13.4855 76.4018 13.8277 74.7988 14.2187C68.047 16.0274 62.8495 18.9605 58.4778 23.5556C56.0005 26.0976 52.7461 30.8882 52.6975 31.9148C52.6975 32.3059 52.0174 32.5503 50.9974 32.5503H49.3458L49.9773 30.6927C51.8231 25.4132 58.6721 18.1783 64.5982 15.1964C69.6985 12.6055 74.9446 11.1879 79.3648 11.0901L82.9108 11.0413L82.7165 15.783ZM21.9013 18.4228C26.4187 19.7915 29.9161 21.8935 33.2677 25.1688C35.8421 27.7108 38.1251 30.7905 38.1251 31.6704C38.1251 32.6481 36.9108 31.7681 33.1705 28.0041C29.3332 24.1911 25.6901 21.7958 22.4842 21.0625C21.2698 20.7692 21.1727 20.8181 21.2698 22.138C21.367 23.2134 21.1727 23.5067 20.3955 23.5067C19.7154 23.5067 19.3268 22.969 18.9382 21.4536C18.6954 20.3292 18.3068 19.2538 18.1125 19.0583C17.5781 18.5694 17.6267 17.3962 18.161 17.3962C18.4039 17.3962 20.104 17.8362 21.9013 18.4228ZM76.499 19.1071C76.499 20.9159 75.1874 24.7288 74.556 24.7288C73.8274 24.7288 73.0502 23.3112 73.1959 22.1868C73.293 21.258 73.1473 21.0625 72.2244 21.1603C69.2128 21.5025 64.8897 24.3866 61.7323 28.2485C60.0322 30.2527 57.5063 31.6704 56.7777 30.986C56.4377 30.6438 59.595 26.5864 61.878 24.3866C64.5496 21.7958 67.367 20.0848 71.5443 18.6183C76.0618 16.9562 76.499 17.0051 76.499 19.1071ZM50.7059 21.1114L52.2603 21.4536L50.9488 22.8223C49.8316 23.9956 49.2001 24.24 47.2571 24.24C45.3142 24.24 44.6341 23.9956 43.5655 22.9201C42.3511 21.698 42.3511 21.6002 43.2254 21.258C44.4398 20.7692 48.6658 20.7203 50.7059 21.1114ZM25.1558 25.7554C25.7386 26.0976 26.3215 26.3909 26.4187 26.5375C26.5644 26.6353 22.0956 31.2304 16.5095 36.7054C10.972 42.2294 6.55174 46.8733 6.74604 47.0689C6.89176 47.3133 11.4578 51.9084 16.8981 57.3834C24.7186 65.3027 26.5644 67.3558 25.9815 67.7469C25.5929 67.9913 24.9129 68.2357 24.4757 68.2357C24.0871 68.2357 20.4926 65.0094 16.4609 61.0986C12.4778 57.1879 7.47466 52.2995 5.38596 50.2464L1.5 46.5312L12.3321 35.8744C18.3068 30.0083 23.4071 25.2177 23.65 25.2177C23.8928 25.2177 24.5729 25.4621 25.1558 25.7554ZM82.5222 36.2166C88.5454 42.0827 93.5 47.1178 93.5 47.3133C93.5 47.5088 93.2571 47.7044 92.9657 47.7044C92.5285 47.7044 74.9931 64.7161 72.1758 67.8447C71.2529 68.9201 70.4757 68.969 68.9699 67.9424L67.7555 67.1603L73.5359 61.4408C76.6932 58.3122 81.4536 53.7171 84.028 51.1752L88.7397 46.58L78.5391 36.4121C69.7471 27.7107 68.387 26.1465 69.1156 25.7065C69.5528 25.4621 70.2814 25.2665 70.7186 25.3643C71.1558 25.4132 76.4504 30.3016 82.5222 36.2166ZM30.6447 30.7904C30.7904 31.1326 30.0132 32.7458 28.9446 34.359C26.5644 37.9275 25.4958 41.7894 25.4958 46.9711C25.4958 53.3749 26.5644 56.5524 30.3532 61.4897L31.3733 62.7607L30.2561 63.5428C29.2846 64.2272 29.0903 64.2272 28.1674 63.3473C26.2244 61.5386 23.8928 56.8946 23.0185 53.1794C21.0269 44.918 22.5327 37.2432 27.3416 30.7416C28.3131 29.4217 28.6531 29.2262 29.4789 29.6661C29.9646 29.9594 30.4989 30.4483 30.6447 30.7904ZM66.444 29.9594C68.387 32.0126 69.7957 34.1146 71.0586 36.8032C72.3216 39.4918 72.3701 39.9807 72.3701 46.9711C72.3701 53.9127 72.3216 54.4504 71.0586 57.139C69.7471 59.9743 66.3955 64.765 65.7154 64.8138C65.2783 64.8138 63.3838 63.0051 63.3838 62.5652C63.3838 62.4185 64.2582 61.2942 65.2783 60.0232C68.7756 55.7703 69.4557 53.6682 69.4557 46.7267C69.4557 41.3983 69.3099 40.274 68.2899 37.9275C67.6584 36.461 66.3955 34.3101 65.4725 33.1858C64.1125 31.4259 63.9182 30.9371 64.3553 30.1061C64.9868 28.884 65.424 28.884 66.444 29.9594ZM37.6394 34.7501C44.1484 36.6566 50.3659 36.5588 57.2635 34.4568C60.3722 33.528 60.6151 33.528 61.4895 34.3101C61.9752 34.7501 62.4124 35.2878 62.4124 35.4833C62.4124 35.6789 60.2751 36.461 57.7006 37.2432C53.6204 38.4653 52.1146 38.6608 47.3543 38.6608C42.594 38.6608 41.1368 38.4653 37.5422 37.292C35.2107 36.5588 33.1705 35.7278 33.0248 35.4344C32.4905 34.6034 33.2191 33.3813 34.142 33.6746C34.5792 33.8213 36.1822 34.3101 37.6394 34.7501ZM19.6668 38.7586C19.6668 39.003 19.3268 40.2251 18.9382 41.545C18.0153 44.5269 18.0153 48.5354 18.8897 52.3484C19.6668 55.6236 19.4725 56.4058 18.3068 54.5482C17.8696 53.8638 16.0723 51.8106 14.2751 50.0019L11.0206 46.6778L15.0037 42.5715C18.7439 38.7097 19.6668 37.9275 19.6668 38.7586ZM79.2191 42.4249C81.4535 44.6247 83.2994 46.6289 83.2994 46.9711C83.2994 47.6066 76.1589 54.8415 75.8189 54.4993C75.6732 54.4015 75.7703 53.4238 76.0132 52.3484C76.2561 51.2729 76.499 48.5354 76.499 46.2379C76.499 42.9137 76.3047 41.7894 75.5275 40.6162C74.556 39.1008 74.3131 38.4164 74.8474 38.4164C75.0417 38.4164 76.9847 40.2251 79.2191 42.4249ZM32.7819 39.6385C33.5591 40.0296 36.1822 40.8606 38.6109 41.3983C45.4599 43.0115 56.4863 42.1316 61.198 39.6874C63.1895 38.6608 64.2096 38.7097 64.8411 39.9318C65.5211 41.1539 65.6668 41.0072 62.4124 42.1805C54.3976 45.1624 46.0428 45.7001 38.1251 43.7936C31.6162 42.2293 29.3817 41.2028 29.7218 39.9318C30.0132 38.7097 30.8875 38.6608 32.7819 39.6385ZM55.1748 49.122C60.5665 50.2464 65.3268 52.0062 65.3268 52.8372C65.3268 54.4015 64.0153 54.5482 60.858 53.3749C57.4092 52.0551 50.2202 50.6374 47.0628 50.6374C44.1969 50.6374 37.9794 51.9573 33.802 53.4238C30.3532 54.6948 30.2075 54.6948 29.576 53.8149C29.1874 53.3261 28.896 52.7394 28.896 52.5439C28.896 52.0062 34.7735 50.0019 39.0966 49.122C44.6341 47.9977 49.6859 47.9977 55.1748 49.122ZM54.6404 55.3792C58.1378 56.2102 62.4124 57.8723 62.4124 58.4589C62.4124 58.6544 62.1209 59.0944 61.7323 59.3877C61.198 59.8277 60.1779 59.6321 57.2635 58.6544C54.009 57.579 52.5518 57.3834 47.84 57.3346C42.4483 57.3346 39.7281 57.7745 34.9678 59.4855C33.6563 59.9743 33.1705 59.9743 32.5876 59.4855C31.4219 58.5078 31.6162 58.1656 34.142 57.0901C41.0396 54.1082 47.2571 53.6194 54.6404 55.3792ZM45.557 61.7341C45.3627 62.223 44.4398 63.9339 43.5169 65.5471C38.2709 74.6396 27.6331 80.9945 15.6837 82.2166L12.3807 82.5099V79.3813C12.3807 77.6215 12.575 74.9817 12.8664 73.5641C13.4493 70.2889 14.9551 65.3027 15.3437 65.3027C15.4894 65.3027 16.0238 65.7426 16.5095 66.2804C17.3838 67.258 17.3838 67.3558 16.3638 70.3377C15.1008 74.0041 14.3237 78.6969 14.858 79.5769C15.3923 80.4079 22.4356 78.6481 26.8073 76.5949C33.2191 73.5641 39.7767 67.4536 41.7682 62.6629C42.3997 61.1475 42.7397 60.9031 44.1969 60.9031C45.6056 60.9031 45.7999 61.0498 45.557 61.7341ZM53.6204 64.0806C56.3406 68.7735 61.538 73.613 66.6383 76.2038C69.65 77.7681 76.9847 79.9679 79.0734 79.9679H80.5306L80.2392 76.8882C80.0935 75.2262 79.4134 72.2442 78.7334 70.3377C77.5676 66.867 77.5676 66.7692 78.4419 65.6938L79.3163 64.5694L80.0935 66.5248C81.6964 70.3377 82.8136 75.7639 82.8136 79.6257C82.8136 82.6566 82.6679 83.3898 82.2307 82.9987C81.8907 82.7543 80.2878 82.3633 78.6848 82.1677C69.99 81.19 62.2181 77.4748 56.5834 71.7065C54.009 69.1156 50.2687 63.9828 50.2687 63.1029C50.2687 62.8585 49.8802 62.2719 49.443 61.7341C48.6172 60.8542 48.6658 60.8542 50.2687 61.0009C51.726 61.1475 52.1146 61.4897 53.6204 64.0806ZM38.1251 62.7607C38.1251 63.885 33.0734 69.2134 30.1104 71.1688C26.8559 73.3686 21.5127 75.5684 19.5211 75.5684C18.6468 75.5684 18.5982 75.3239 18.8897 72.5375C19.084 70.8266 19.3268 69.3601 19.4725 69.2623C19.9097 68.8223 21.9984 71.3154 21.7555 71.9509C21.4155 72.8308 21.5612 72.8308 24.33 71.6576C27.5359 70.24 32.5876 66.5248 33.6077 64.8138C34.5792 63.1029 38.1251 61.5386 38.1251 62.7607ZM62.4609 66.2804C66.8326 70.7288 74.216 74.3951 73.3902 71.7554C73.0502 70.7288 74.216 68.9201 74.896 69.3601C75.4789 69.7511 76.499 73.4663 76.499 75.275C76.499 76.4971 76.4504 76.4972 74.9446 75.8617C74.0702 75.4706 72.0301 74.6884 70.4271 74.1018C66.3469 72.6842 62.801 70.0933 59.0607 65.8404L55.8548 62.223L57.5063 62.614C58.6236 62.8585 60.2265 64.0317 62.4609 66.2804ZM50.7059 70.9732L51.7746 72.782L47.84 72.5375C45.7028 72.3909 43.8569 72.1953 43.7112 72.0487C43.5655 71.902 43.7112 71.2177 44.0026 70.4844C44.537 69.3601 44.877 69.2134 47.16 69.2134C49.5401 69.2134 49.7344 69.3112 50.7059 70.9732ZM45.1684 76.3505C47.0628 76.4971 49.8802 76.3994 51.4831 76.155C53.0861 75.8617 54.4947 75.7639 54.5919 75.8617C54.7376 75.9594 53.1346 77.7193 51.1431 79.7724L47.5 83.4876L45.4599 81.2878C44.3427 80.1146 42.594 78.5014 41.5253 77.7681C39.3881 76.3016 38.9509 75.275 40.6996 75.7639C41.2825 75.9594 43.3226 76.2038 45.1684 76.3505ZM42.3025 82.9499L47.2571 87.936L52.1632 82.8521L57.0206 77.7681L58.3807 78.5014C59.1093 78.9414 59.7408 79.528 59.7408 79.8213C59.7408 80.359 55.1262 85.2963 49.5887 90.6736L47.4029 92.8245L46.0913 91.2113C45.3627 90.3314 42.4968 87.3494 39.7767 84.5142C35.4535 80.0657 34.9192 79.3813 35.5507 78.7458C35.9393 78.3547 36.5222 78.0126 36.8136 78.0126C37.1051 78.0126 39.5824 80.2612 42.3025 82.9499Z" stroke="#7E7E7E" stroke-width="1.6145" mask="url(#path-1-outside-1_2_47)"/>
</svg>
