<svg width="64" height="64" viewBox="0 0 64 64" fill="none" xmlns="http://www.w3.org/2000/svg">
<path d="M36.4604 4.62486C38.9609 7.20935 40.887 9.41977 40.7519 9.55579C40.6167 9.65781 40.1436 9.86185 39.6705 9.99787C38.9271 10.1679 38.3865 9.72582 35.4467 6.66525L32.1014 3.12858L28.5195 6.86929C25.0391 10.508 24.9377 10.576 24.0591 10.1339C23.5185 9.89585 23.113 9.48778 23.113 9.18172C23.113 8.70563 31.0877 0.102015 31.6621 -3.8147e-06C31.7973 -3.8147e-06 33.9599 2.07438 36.4604 4.62486ZM34.6019 9.31775C37.2038 11.9362 37.5079 12.6844 35.5818 11.6642C34.6357 11.1881 33.8585 11.1201 30.8173 11.2901C26.661 11.4942 26.7286 11.6982 29.7022 8.5356C30.6146 7.58342 31.5607 6.76727 31.7297 6.76727C31.9324 6.76727 33.2165 7.92349 34.6019 9.31775ZM13.6177 7.78746C19.7677 9.35175 24.2957 12.3443 27.8437 17.1392C29.2629 19.0096 31.0539 22.3422 30.8173 22.5802C30.716 22.6822 30.1753 22.5802 29.6009 22.3762C28.8575 22.1381 28.4182 21.6281 28.0465 20.6759C27.3369 18.9075 27.1679 18.6695 24.0591 15.5749C21.0517 12.5483 17.6389 10.61 13.5164 9.52178C10.0359 8.60361 8.92081 8.60361 8.92081 9.45377C8.92081 10.542 9.90074 14.9968 10.509 16.5271C10.9483 17.7173 10.9483 18.0914 10.6103 18.4995C9.93453 19.3156 9.73179 19.1456 8.98839 17.2072C8.1774 15.1328 7.94087 14.0786 7.60296 10.746C7.434 9.41976 7.23126 8.0255 7.0623 7.68544C6.85956 7.17534 7.0623 7.10733 8.92081 7.10733C10.0697 7.10733 12.1647 7.41339 13.6177 7.78746ZM56.4984 10.4059C56.3295 13.6706 54.9778 19.0436 54.2006 19.5197C54.0317 19.6217 53.66 19.3496 53.3559 18.8735C52.849 18.0914 52.849 17.8873 53.6938 15.5409C54.1669 14.1807 54.6737 12.1063 54.7751 10.9501L54.9778 8.80765H53.9979C53.4235 8.80765 52.1056 9.0457 50.9905 9.31775C46.2936 10.576 42.6779 12.6164 39.6368 15.813C37.9134 17.5813 35.6494 20.9139 35.6156 21.6281C35.6156 21.9001 35.1426 22.0701 34.4329 22.0701H33.2841L33.7233 20.7779C35.0074 17.1052 39.7719 12.0723 43.8944 9.99787C47.4425 8.19553 51.0919 7.20935 54.1668 7.14134L56.6336 7.10733L56.4984 10.4059ZM14.1922 12.2423C17.3347 13.1945 19.7677 14.6567 22.0993 16.9352C23.8902 18.7035 25.4784 20.8459 25.4784 21.458C25.4784 22.1381 24.6336 21.526 22.0317 18.9075C19.3622 16.255 16.8279 14.5887 14.5977 14.0786C13.7529 13.8746 13.6853 13.9086 13.7529 14.8268C13.8205 15.5749 13.6853 15.7789 13.1447 15.7789C12.6716 15.7789 12.4013 15.4049 12.1309 14.3507C11.962 13.5685 11.6917 12.8204 11.5565 12.6844C11.1848 12.3443 11.2186 11.5282 11.5903 11.5282C11.7592 11.5282 12.9419 11.8342 14.1922 12.2423ZM52.1732 12.7184C52.1732 13.9766 51.2608 16.6291 50.8216 16.6291C50.3147 16.6291 49.774 15.6429 49.8754 14.8608C49.943 14.2147 49.8416 14.0786 49.1996 14.1466C47.1045 14.3847 44.0972 16.3911 41.9007 19.0776C40.7181 20.4718 38.9609 21.458 38.4541 20.9819C38.2175 20.7439 40.4139 17.9214 42.0021 16.3911C43.8606 14.5887 45.8205 13.3985 48.7265 12.3783C51.8691 11.2221 52.1732 11.2561 52.1732 12.7184ZM34.2302 14.1126L35.3115 14.3507L34.3992 15.3029C33.622 16.119 33.1827 16.289 31.8311 16.289C30.4794 16.289 30.0063 16.119 29.2629 15.3709C28.4182 14.5207 28.4182 14.4527 29.0264 14.2147C29.8712 13.8746 32.811 13.8406 34.2302 14.1126ZM16.4562 17.3432C16.8617 17.5813 17.2672 17.7853 17.3347 17.8874C17.4361 17.9554 14.3274 21.152 10.4414 24.9607C6.58923 28.8034 3.51426 32.034 3.64942 32.17C3.75079 32.3401 6.92714 35.5367 10.7117 39.3454C16.1521 44.8544 17.4361 46.2827 17.0306 46.5547C16.7603 46.7248 16.2872 46.8948 15.9831 46.8948C15.7128 46.8948 13.2123 44.6504 10.4076 41.9299C7.63675 39.2093 4.15628 35.8087 2.70327 34.3804L0 31.796L7.53538 24.3826C11.6917 20.3018 15.2397 16.9692 15.4087 16.9692C15.5776 16.9692 16.0507 17.1392 16.4562 17.3432ZM56.3633 24.6206C60.5533 28.7014 64 32.204 64 32.3401C64 32.4761 63.8311 32.6121 63.6283 32.6121C63.3242 32.6121 51.1257 44.4463 49.1658 46.6227C48.5238 47.3709 47.9831 47.4049 46.9356 46.6908L46.0908 46.1467L50.1119 42.1679C52.3083 39.9915 55.6199 36.7949 57.4108 35.0266L60.6885 31.83L53.5924 24.7566C47.4762 18.7035 46.5301 17.6153 47.037 17.3092C47.3411 17.1392 47.8479 17.0032 48.1521 17.0712C48.4562 17.1052 52.1394 20.5058 56.3633 24.6206ZM20.2746 20.8459C20.3759 21.0839 19.8353 22.2062 19.0919 23.3284C17.4361 25.8108 16.6927 28.4973 16.6927 32.102C16.6927 36.5569 17.4361 38.7673 20.0718 42.2019L20.7814 43.0861L20.0042 43.6302C19.3284 44.1063 19.1932 44.1063 18.5512 43.4942C17.1996 42.2359 15.5776 39.0053 14.9694 36.4208C13.584 30.6737 14.6315 25.3347 17.9768 20.8119C18.6526 19.8937 18.8891 19.7577 19.4636 20.0638C19.8015 20.2678 20.1732 20.6079 20.2746 20.8459ZM45.1785 20.2678C46.5301 21.6961 47.51 23.1583 48.3886 25.0287C49.2672 26.899 49.301 27.2391 49.301 32.102C49.301 36.9309 49.2672 37.305 48.3886 39.1753C47.4763 41.1477 45.1447 44.4803 44.6716 44.5143C44.3675 44.5143 43.0496 43.2561 43.0496 42.95C43.0496 42.848 43.6579 42.0659 44.3675 41.1817C46.8004 38.2232 47.2735 36.7609 47.2735 31.932C47.2735 28.2253 47.1721 27.4431 46.4625 25.8108C46.0232 24.7906 45.1447 23.2944 44.5026 22.5122C43.5565 21.288 43.4213 20.9479 43.7255 20.3698C44.1647 19.5197 44.4689 19.5196 45.1785 20.2678ZM25.1404 23.6004C29.6684 24.9267 33.9937 24.8587 38.792 23.3964C40.9546 22.7503 41.1236 22.7503 41.7318 23.2944C42.0697 23.6004 42.3738 23.9745 42.3738 24.1105C42.3738 24.2465 40.887 24.7906 39.0961 25.3347C36.2577 26.1849 35.2101 26.3209 31.8986 26.3209C28.5871 26.3209 27.5734 26.1849 25.0729 25.3688C23.4509 24.8587 22.0317 24.2805 21.9303 24.0765C21.5586 23.4984 22.0655 22.6482 22.7075 22.8523C23.0116 22.9543 24.1267 23.2944 25.1404 23.6004ZM12.6378 26.3889C12.6378 26.559 12.4013 27.4091 12.1309 28.3273C11.4889 30.4017 11.4889 33.1902 12.0972 35.8427C12.6378 38.1211 12.5026 38.6652 11.6917 37.373C11.3875 36.8969 10.1373 35.4686 8.88701 34.2104L6.62302 31.898L9.39388 29.0414C11.9958 26.3549 12.6378 25.8108 12.6378 26.3889ZM54.0655 28.9394C55.6199 30.4697 56.9039 31.864 56.9039 32.102C56.9039 32.5441 51.9366 37.577 51.7001 37.339C51.5987 37.271 51.6663 36.5909 51.8353 35.8427C52.0042 35.0946 52.1732 33.1902 52.1732 31.5919C52.1732 29.2795 52.038 28.4973 51.4974 27.6812C50.8216 26.627 50.6526 26.1509 51.0243 26.1509C51.1595 26.1509 52.5111 27.4091 54.0655 28.9394ZM21.7614 27.0011C22.302 27.2731 24.1267 27.8512 25.8163 28.2253C30.5808 29.3475 38.2513 28.7354 41.529 27.0351C42.9145 26.3209 43.6241 26.3549 44.0634 27.2051C44.5364 28.0553 44.6378 27.9532 42.3738 28.7694C36.7983 30.8438 30.9863 31.2178 25.4784 29.8916C20.9504 28.8034 19.396 28.0893 19.6325 27.2051C19.8353 26.3549 20.4435 26.3209 21.7614 27.0011ZM37.339 33.5983C41.0898 34.3804 44.4013 35.6047 44.4013 36.1828C44.4013 37.271 43.4889 37.373 41.2925 36.5569C38.8934 35.6387 33.8923 34.6525 31.6959 34.6525C29.7022 34.6525 25.377 35.5707 22.471 36.5909C20.0718 37.475 19.9704 37.475 19.5312 36.8629C19.2608 36.5228 19.0581 36.1148 19.0581 35.9787C19.0581 35.6047 23.1468 34.2104 26.1542 33.5983C30.0063 32.8162 33.5206 32.8162 37.339 33.5983ZM36.9673 37.9511C39.4002 38.5292 42.3738 39.6854 42.3738 40.0935C42.3738 40.2295 42.1711 40.5356 41.9007 40.7396C41.529 41.0457 40.8194 40.9097 38.792 40.2295C36.528 39.4814 35.5143 39.3454 32.2365 39.3114C28.4857 39.3114 26.5935 39.6174 23.2819 40.8077C22.3696 41.1477 22.0317 41.1477 21.6262 40.8077C20.8152 40.1275 20.9504 39.8895 22.7075 39.1413C27.5058 37.0669 31.831 36.7269 36.9673 37.9511ZM30.6484 42.3719C30.5132 42.712 29.8712 43.9022 29.2291 45.0244C25.5797 51.3496 18.1795 55.7705 9.86695 56.6206L7.56917 56.8247V54.6482C7.56917 53.424 7.70433 51.5877 7.90708 50.6015C8.31257 48.3231 9.36009 44.8544 9.63041 44.8544C9.73179 44.8544 10.1035 45.1605 10.4414 45.5345C11.0496 46.2147 11.0496 46.2827 10.34 48.3571C9.46146 50.9075 8.9208 54.1722 9.2925 54.7843C9.6642 55.3624 14.5639 54.1382 17.6051 52.7099C22.0655 50.6015 26.6272 46.3507 28.0127 43.0181C28.452 41.9639 28.6885 41.7938 29.7022 41.7938C30.6822 41.7938 30.8173 41.8959 30.6484 42.3719ZM36.2577 44.0043C38.15 47.2689 41.7656 50.6355 45.3136 52.4378C47.4087 53.526 52.5111 55.0563 53.9641 55.0563H54.9778L54.7751 52.9139C54.6737 51.7577 54.2006 49.6833 53.7276 48.3571C52.9166 45.9426 52.9166 45.8746 53.5248 45.1265L54.1331 44.3443L54.6737 45.7046C55.7888 48.3571 56.566 52.1318 56.566 54.8183C56.566 56.9267 56.4646 57.4368 56.1605 57.1647C55.924 56.9947 54.8089 56.7226 53.6938 56.5866C47.6452 55.9065 42.2387 53.322 38.3189 49.3092C36.528 47.5069 33.9261 43.9362 33.9261 43.3241C33.9261 43.1541 33.6558 42.746 33.3516 42.3719C32.7772 41.7598 32.811 41.7598 33.9261 41.8618C34.9398 41.9639 35.2101 42.2019 36.2577 44.0043ZM25.4784 43.0861C25.4784 43.8682 21.9641 47.5749 19.9029 48.9352C17.6389 50.4655 13.9219 51.9957 12.5364 51.9957C11.9282 51.9957 11.8944 51.8257 12.0972 49.8874C12.2323 48.6971 12.4013 47.6769 12.5026 47.6089C12.8068 47.3029 14.2598 49.0372 14.0908 49.4793C13.8543 50.0914 13.9557 50.0914 15.8817 49.2752C18.1119 48.2891 21.6262 45.7046 22.3358 44.5143C23.0116 43.3241 25.4784 42.2359 25.4784 43.0861ZM42.4076 45.5345C45.4488 48.6291 50.585 51.1796 50.0106 49.3432C49.774 48.6291 50.585 47.3709 51.0581 47.6769C51.4636 47.949 52.1732 50.5335 52.1732 51.7917C52.1732 52.6419 52.1394 52.6419 51.0919 52.1998C50.4836 51.9277 49.0644 51.3836 47.9493 50.9756C45.1109 49.9894 42.6441 48.187 40.0422 45.2285L37.812 42.712L38.9609 42.9841C39.7381 43.1541 40.8532 43.9702 42.4076 45.5345ZM34.2302 48.7991L34.9736 50.0574L32.2365 49.8874C30.7497 49.7853 29.4657 49.6493 29.3643 49.5473C29.2629 49.4453 29.3643 48.9692 29.5671 48.4591C29.9388 47.6769 30.1753 47.5749 31.7635 47.5749C33.4192 47.5749 33.5544 47.6429 34.2302 48.7991ZM30.378 52.5398C31.6959 52.6419 33.6558 52.5739 34.7709 52.4038C35.886 52.1998 36.8659 52.1318 36.9335 52.1998C37.0349 52.2678 35.9197 53.492 34.5343 54.9203L32 57.5048L30.5808 55.9745C29.8036 55.1583 28.5871 54.0361 27.8437 53.526C26.3569 52.5058 26.0528 51.7917 27.2693 52.1318C27.6748 52.2678 29.094 52.4378 30.378 52.5398ZM28.3844 57.1307L31.8311 60.5994L35.2439 57.0627L38.623 53.526L39.5692 54.0361C40.076 54.3422 40.5153 54.7503 40.5153 54.9543C40.5153 55.3284 37.3052 58.763 33.453 62.5037L31.9324 64L31.0201 62.8778C30.5132 62.2657 28.5195 60.1913 26.6272 58.2189C23.6199 55.1243 23.2482 54.6482 23.6874 54.2062C23.9578 53.9341 24.3633 53.6961 24.566 53.6961C24.7687 53.6961 26.4921 55.2604 28.3844 57.1307Z" fill="#D9D9D9"/>
</svg>
