<svg width="86" height="44" viewBox="0 0 86 44" fill="none" xmlns="http://www.w3.org/2000/svg">
<path fill-rule="evenodd" clip-rule="evenodd" d="M27.1674 0.49979C27.4324 0.919476 27.5208 1.78093 27.565 4.54201L27.6312 8.03201L28.9345 8.47379C30.4586 8.98182 30.812 9.4015 30.4807 10.285C30.2819 10.8814 30.2156 10.9035 28.6915 10.9035C27.83 10.9035 27.079 10.9477 27.0128 11.014C26.9465 11.0802 26.7919 12.6706 26.6373 14.5482C26.5047 16.4257 26.2838 18.3032 26.1734 18.7008C25.577 20.5783 22.9043 20.0261 23.1914 18.0823C23.2577 17.6626 23.5007 15.9618 23.7216 14.3273C23.9645 12.6927 24.2738 10.9256 24.4063 10.3955C24.5609 9.88745 24.6051 9.35733 24.5388 9.24688C24.4726 9.13644 23.4123 8.56214 22.1533 7.96574C19.5689 6.72878 18.9725 6.19865 19.3259 5.51391C19.6793 4.89543 20.4524 4.38739 21.1151 4.38739C21.4464 4.38739 22.1091 4.74081 22.7497 5.27093C23.832 6.17657 24.5168 6.37536 24.7155 5.86732C24.7597 5.73479 24.826 4.56409 24.8481 3.28296C24.8702 1.05201 24.8923 0.941559 25.4887 0.477699C26.2618 -0.162872 26.7256 -0.162868 27.1674 0.49979ZM35.2518 4.23277C35.2518 6.41954 34.7438 13.3112 34.3683 16.2048C34.0811 18.3916 33.8161 19.253 33.2638 19.739C32.8662 20.0924 32.8 20.1145 32.2699 19.7611C31.298 19.1205 31.298 19.0321 32.4024 10.6826C33.2638 4.05606 33.4626 2.79701 33.7277 2.48777C33.8602 2.31106 34.2578 2.17853 34.6113 2.17853H35.2518V4.23277ZM52.3263 2.73074C52.4147 2.90745 52.3705 3.92353 52.2601 4.98378C51.9508 7.98783 51.3323 14.6807 51.1777 16.6466L51.0452 18.4137L50.2279 18.4799C49.0793 18.5683 48.5933 18.237 48.2399 17.1546C47.9528 16.2269 47.8865 16.1827 44.3523 14.3714C42.3644 13.3775 40.5089 12.5602 40.2439 12.5602C39.6254 12.5602 39.5812 12.7148 39.2278 16.4257C39.2137 16.57 39.2002 16.7088 39.1872 16.8422C38.9543 19.2341 38.8895 19.8992 38.5949 20.0247C38.4814 20.073 38.3339 20.0413 38.1295 19.9974C38.1061 19.9924 38.082 19.9872 38.0571 19.982C36.8864 19.739 36.7097 19.4076 36.7538 17.4859C36.8201 15.3213 37.1735 11.7429 37.5711 9.026C37.792 7.54606 37.8362 6.6846 37.6816 6.17657C37.3282 4.93961 38.278 3.28296 39.3382 3.28296C40.0009 3.28296 40.1555 3.54802 40.1555 4.5641C40.1334 5.00587 40.1776 5.55808 40.2439 5.75688C40.3101 5.95568 41.6575 6.83922 43.2479 7.74485C46.6937 9.64448 47.7098 10.1083 48.6375 10.1083C49.499 10.1304 49.5211 9.97581 49.742 5.93359C49.8524 3.87935 49.9849 2.92954 50.2058 2.70865C50.6255 2.28897 52.1717 2.28897 52.3263 2.73074ZM62.0674 3.12834C62.4208 3.3934 62.4429 3.61428 62.2883 5.40346C62.2766 5.52478 62.2654 5.63989 62.2549 5.74912C62.0933 7.41845 62.0646 7.71515 62.1864 7.80283C62.2127 7.82178 62.246 7.83097 62.2866 7.84214C62.301 7.8461 62.3163 7.85032 62.3325 7.8553C62.465 7.89948 63.1277 7.19264 63.8124 6.28701C64.5192 5.35929 65.2703 4.51992 65.4911 4.38739C66.1096 4.05606 67.0153 4.47574 67.192 5.1384C67.457 6.19866 66.5293 7.52397 64.0996 9.64448L61.8244 11.6325L61.6256 15.6747L61.4268 19.7169L60.7421 20.1145C60.0573 20.5121 60.0573 20.5121 59.4389 19.9599C58.9308 19.4739 58.8646 19.2751 58.975 18.5683C59.0413 18.1265 59.1738 16.3815 59.2401 14.7028C59.247 14.5629 59.2539 14.429 59.2604 14.3004C59.3379 12.7845 59.3764 12.0302 59.0851 11.4383C58.7967 10.8521 58.1849 10.425 56.9672 9.57497C56.8675 9.50536 56.7637 9.43292 56.6557 9.35733C53.5854 7.17055 52.5472 5.62435 53.5191 4.5641C53.8946 4.14441 55.0211 4.03397 55.5292 4.3653C55.7059 4.45365 56.3465 5.3372 56.9649 6.28701C58.0252 7.87739 58.1798 8.03201 58.9308 8.09828L59.726 8.16454L59.8144 5.93359C59.8806 3.87935 59.9248 3.63638 60.4108 3.26087C61.0072 2.77492 61.5152 2.73074 62.0674 3.12834ZM16.4323 26.1447C16.4765 26.8736 16.344 29.2592 16.1673 31.4459C15.9685 33.6327 15.7476 36.1729 15.6813 37.0785C15.5046 39.4199 14.9524 41.6951 14.4664 42.181C14.0467 42.6007 14.0026 42.6007 13.3841 42.2473C12.5005 41.7172 12.4343 41.1649 12.8098 38.3155C12.9433 37.4109 13.1365 35.9386 13.3226 34.5206L13.3226 34.5202C13.4137 33.8264 13.5031 33.1454 13.5829 32.5504C13.8259 30.717 14.1351 28.3535 14.2676 27.2933C14.5548 25.1728 14.8861 24.6427 15.7917 24.7531C16.3219 24.8194 16.366 24.9077 16.4323 26.1447ZM34.7659 26.3656C34.8763 28.0664 34.2137 36.8135 33.794 39.3537C33.2638 42.667 32.6233 43.5063 31.4968 42.3798C30.9666 41.8497 30.9225 40.5685 31.3642 37.5203C31.5188 36.3717 31.9385 33.2351 32.2919 30.5624C32.9546 25.3937 33.1534 24.8194 34.2137 24.974C34.6333 25.0402 34.6996 25.1949 34.7659 26.3656ZM51.752 25.5262C51.8404 25.7471 51.6858 28.4419 51.3986 31.5343C51.1115 34.6267 50.8464 38.0946 50.7801 39.2211L50.6476 41.2975L49.4106 41.2312L48.1737 41.1649L47.7761 40.0605L47.3785 38.934L43.9547 37.2332C40.6194 35.5544 39.4045 35.2231 39.1615 35.8637C39.0952 36.0404 38.9185 37.2553 38.786 38.5585C38.7596 38.8153 38.7348 39.0567 38.7116 39.2836C38.4266 42.0676 38.3651 42.6682 38.089 42.7926C38.013 42.8269 37.9209 42.8251 37.8033 42.8228C37.772 42.8222 37.7388 42.8216 37.7037 42.8216C37.3723 42.8216 36.8864 42.6228 36.5992 42.3577C36.1354 41.916 36.1133 41.7834 36.2458 39.5525C36.3342 38.2492 36.5771 35.687 36.8201 33.8315C37.041 31.9982 37.2177 29.8556 37.1956 29.0604C37.1294 27.8897 37.2177 27.4921 37.5932 27.0061C38.6976 25.5041 39.4928 25.7471 39.6695 27.6467C39.7358 28.3094 39.8242 28.9058 39.8904 28.972C39.9314 28.9993 40.1748 29.1363 40.5112 29.3256C40.7191 29.4426 40.9626 29.5796 41.2157 29.723C41.8218 30.0463 43.1299 30.7759 44.2276 31.3883L44.529 31.5564C46.0973 32.4399 46.9146 32.7713 47.754 32.8375L48.8805 32.9259L49.0351 31.8656C49.1235 31.2692 49.2339 29.6568 49.3223 28.2873C49.4106 26.5644 49.5652 25.6808 49.764 25.4599C50.2279 25.0182 51.5753 25.0623 51.752 25.5262ZM2.25142 26.2109C2.40604 26.2993 2.6711 27.0061 2.84781 27.8013C3.37794 30.0102 4.06269 33.0805 4.34984 34.4942C4.65908 35.9078 5.10085 36.5263 5.34383 35.8416C5.71933 34.7813 7.26554 31.0925 7.83984 29.8997C8.74547 28.0001 9.93826 26.6969 10.7555 26.6969C11.86 26.6969 11.8821 27.9118 10.7997 29.6126C9.69528 31.4018 7.22136 36.438 6.20528 39.0444C5.43218 41.0103 5.0125 41.8055 4.68117 41.938C4.4161 42.0264 4.15104 42.0485 4.08477 41.9601C4.01851 41.8939 3.40003 39.6408 2.71528 36.9681C2.05262 34.2954 1.1249 31.0263 0.661039 29.723C-0.244595 27.1608 -0.244595 26.8515 0.815659 26.3214C1.41205 26.0121 1.898 25.968 2.25142 26.2109ZM22.5288 26.1668C22.9485 26.3214 23.0147 28.6186 22.6392 30.1206C22.5067 30.6508 22.4404 31.203 22.4846 31.3355C22.5288 31.4901 23.5007 30.8716 24.6493 29.966C27.7196 27.5804 28.073 27.3596 28.824 27.3596C29.31 27.3596 29.5971 27.5142 29.8622 27.9118C30.569 29.0162 30.061 29.4801 24.3842 32.9701C23.4344 33.5444 22.595 34.1187 22.5288 34.2512C22.3079 34.5825 23.324 35.3998 25.8862 36.9902C28.3602 38.5143 29.9506 39.8396 29.9506 40.3698C29.9506 41.0766 29.31 41.7172 28.559 41.7172C27.6533 41.7172 27.1453 41.3417 24.9806 39.1107C23.3902 37.4982 23.1031 37.2994 22.3962 37.2994C21.9766 37.2994 21.4906 37.432 21.3581 37.6087C21.2255 37.7854 21.0047 38.7352 20.8942 39.7292C20.6292 41.9822 20.2757 42.6007 19.2376 42.6007C18.84 42.6007 18.3319 42.4461 18.1552 42.2473C17.7135 41.8276 17.7135 40.6127 18.1331 39.5966C18.7074 38.183 19.3259 35.1347 19.8119 31.2692C20.0769 29.1708 20.3862 27.2491 20.4745 26.962C20.7396 26.2772 21.7557 25.8796 22.5288 26.1668ZM63.5694 27.0724C64.4088 27.8234 64.0996 28.3315 62.1779 29.3475C58.9529 31.0925 57.5613 32.7271 57.5613 34.7813C57.5613 35.7532 57.6497 35.9078 58.6216 36.8356C59.7702 37.94 62.5754 39.5966 62.7522 39.2874C62.8184 39.177 62.9289 38.426 63.0172 37.6308L63.1498 36.1729L61.6698 36.3275L60.1899 36.4822L60.2561 35.7311C60.3224 35.0685 60.4108 34.958 61.4268 34.6488C62.0453 34.4721 63.0172 33.9861 63.6136 33.5885C64.2321 33.213 64.8285 32.8817 64.961 32.8817C65.4911 32.8817 66.1759 33.6106 66.9269 35.0022C67.8325 36.6147 67.7442 37.0785 66.5956 37.0785C66.1096 37.0785 65.8887 36.946 65.7341 36.5263C65.5132 35.9299 65.1156 35.7974 64.961 36.2392C64.9168 36.3938 64.8285 37.7633 64.7843 39.2874C64.696 41.9601 64.6739 42.0485 64.1658 42.3577C63.2602 42.8658 62.222 42.4903 60.0573 40.8778C58.975 40.0605 57.2963 38.8235 56.3244 38.1388C55.3746 37.4541 54.248 36.5484 53.8284 36.1066L53.0773 35.3335L54.6015 33.0584C56.6557 29.9881 58.8425 27.8013 60.4328 27.1828C61.9128 26.6085 63.0172 26.5644 63.5694 27.0724ZM81.0194 27.2049C81.3508 27.3596 82.5215 28.6407 83.6259 30.0765C85.8348 32.948 86.0557 33.6106 84.8187 33.7211C84.1119 33.7873 83.3829 33.2572 82.411 31.9761C80.8869 29.9881 79.9592 30.96 79.0756 35.4219C78.3467 39.2432 78.1037 40.7673 78.1037 41.7613C78.1037 43.8598 76.8005 44.0806 74.8788 42.3356C73.6418 41.2091 73.5756 41.1649 71.9852 41.0324C70.0193 40.8778 69.3787 40.4139 69.4229 39.177C69.4671 37.4541 70.682 37.2773 73.1338 38.6248C76.0716 40.2372 76.16 40.1489 77.5736 33.1026C78.5676 28.1106 78.7222 27.5363 79.164 27.1828C79.6058 26.8515 80.2463 26.8515 81.0194 27.2049ZM39.78 8.8051C39.7138 8.91555 39.8021 9.29105 39.9788 9.62238C40.2218 10.0862 41.282 10.7489 44.507 12.4056C46.8263 13.5983 48.8364 14.504 48.9468 14.4377C49.4107 14.1506 49.1456 13.4658 48.3283 12.8252C47.0693 11.8092 43.9327 9.90953 42.3865 9.2027C40.9728 8.56213 40.023 8.40751 39.78 8.8051ZM39.4485 32.3737C39.3381 32.0203 39.2939 31.6447 39.3602 31.5343C39.4265 31.4239 39.6694 31.3355 39.9124 31.3355C40.9064 31.3355 45.3683 33.7653 48.0189 35.7311C48.7479 36.3054 48.9467 37.0123 48.4165 37.2111C48.2398 37.2773 46.2077 36.3496 43.8884 35.1789C40.31 33.3235 39.6473 32.9038 39.4485 32.3737Z" fill="#16E7CB"/>
</svg>
